<svg width="1600" height="96" viewBox="0 0 1600 96" fill="none" xmlns="http://www.w3.org/2000/svg">
<rect width="1600" height="96" fill="black"/>
<path d="M225.04 45.196C225.688 44.236 226.576 43.456 227.704 42.856C228.856 42.256 230.164 41.956 231.628 41.956C233.332 41.956 234.868 42.376 236.236 43.216C237.628 44.056 238.72 45.256 239.512 46.816C240.328 48.352 240.736 50.14 240.736 52.18C240.736 54.22 240.328 56.032 239.512 57.616C238.72 59.176 237.628 60.388 236.236 61.252C234.868 62.116 233.332 62.548 231.628 62.548C230.14 62.548 228.832 62.26 227.704 61.684C226.6 61.084 225.712 60.316 225.04 59.38V62.224H220V35.584H225.04V45.196ZM235.588 52.18C235.588 50.98 235.336 49.948 234.832 49.084C234.352 48.196 233.704 47.524 232.888 47.068C232.1 46.6131 231.205 46.377 230.296 46.384C229.384 46.384 228.52 46.624 227.704 47.104C226.912 47.56 226.264 48.232 225.76 49.12C225.28 50.008 225.04 51.052 225.04 52.252C225.04 53.452 225.28 54.496 225.76 55.384C226.264 56.272 226.912 56.956 227.704 57.436C228.52 57.892 229.384 58.12 230.296 58.12C231.232 58.12 232.096 57.88 232.888 57.4C233.704 56.92 234.352 56.236 234.832 55.348C235.336 54.46 235.588 53.404 235.588 52.18ZM246.954 39.904C246.066 39.904 245.322 39.628 244.722 39.076C244.146 38.5 243.858 37.792 243.858 36.952C243.858 36.112 244.146 35.416 244.722 34.864C245.322 34.288 246.066 34 246.954 34C247.842 34 248.574 34.288 249.15 34.864C249.75 35.416 250.05 36.112 250.05 36.952C250.05 37.792 249.75 38.5 249.15 39.076C248.574 39.628 247.842 39.904 246.954 39.904ZM249.438 42.28V62.224H244.398V42.28H249.438ZM266.226 62.224L259.458 53.728V62.224H254.418V35.584H259.458V50.74L266.154 42.28H272.706L263.922 52.288L272.778 62.224H266.226ZM273.145 52.252C273.145 50.188 273.565 48.388 274.405 46.852C275.245 45.292 276.409 44.092 277.897 43.252C279.385 42.388 281.089 41.956 283.009 41.956C285.481 41.956 287.521 42.58 289.129 43.828C290.761 45.052 291.853 46.78 292.405 49.012H286.97C286.682 48.148 286.19 47.476 285.494 46.996C284.822 46.492 283.982 46.24 282.974 46.24C281.534 46.24 280.394 46.768 279.554 47.824C278.714 48.856 278.294 50.332 278.294 52.252C278.294 54.148 278.714 55.624 279.554 56.68C280.394 57.712 281.534 58.228 282.974 58.228C285.014 58.228 286.346 57.316 286.97 55.492H292.406C291.854 57.652 290.762 59.368 289.13 60.64C287.498 61.912 285.458 62.548 283.01 62.548C281.09 62.548 279.386 62.128 277.898 61.288C276.422 60.4362 275.212 59.1895 274.406 57.688C273.566 56.128 273.146 54.316 273.146 52.252H273.145ZM300.138 45.376C300.756 44.3495 301.623 43.4952 302.658 42.892C303.714 42.292 304.914 41.992 306.258 41.992V47.284H304.926C303.342 47.284 302.142 47.656 301.326 48.4C300.534 49.144 300.138 50.44 300.138 52.288V62.224H295.098V42.28H300.138V45.376ZM321.712 59.38C321.16 60.292 320.26 61.06 319.012 61.684C317.764 62.284 316.42 62.584 314.98 62.584C313.732 62.584 312.604 62.332 311.596 61.828C310.588 61.324 309.796 60.628 309.22 59.74C308.644 58.852 308.356 57.832 308.356 56.68C308.356 54.832 309.04 53.32 310.408 52.144C311.8 50.968 313.876 50.38 316.636 50.38H321.712C321.664 49.108 321.292 48.1 320.596 47.356C319.924 46.588 318.988 46.204 317.788 46.204C316.732 46.204 315.856 46.492 315.16 47.068C314.464 47.62 314.02 48.4 313.828 49.408H308.788C309.028 47.968 309.544 46.684 310.336 45.556C311.145 44.41 312.236 43.4923 313.504 42.892C314.824 42.244 316.3 41.92 317.932 41.92C319.612 41.92 321.124 42.268 322.468 42.964C323.803 43.6289 324.916 44.6669 325.672 45.952C326.44 47.248 326.824 48.772 326.824 50.524V62.224H321.712V59.38ZM316.456 58.516C317.296 58.516 318.112 58.336 318.904 57.976C319.72 57.616 320.392 57.076 320.92 56.356C321.448 55.636 321.712 54.784 321.712 53.8V53.656H316.924C315.772 53.656 314.908 53.884 314.332 54.34C313.78 54.796 313.504 55.396 313.504 56.14C313.504 56.86 313.756 57.436 314.26 57.868C314.788 58.3 315.52 58.516 316.456 58.516ZM337.453 46.42V62.224H332.341V46.42H330.073V42.28H332.341V41.272C332.341 38.824 333.037 37.024 334.429 35.872C335.821 34.72 337.921 34.18 340.729 34.252V38.5C339.505 38.476 338.653 38.68 338.173 39.112C337.693 39.544 337.453 40.324 337.453 41.452V42.28H344.003V37.348H349.079V42.28H353.543V46.42H349.079V56.068C349.079 56.74 349.235 57.232 349.547 57.544C349.883 57.832 350.435 57.976 351.203 57.976H353.543V62.224H350.375C346.127 62.224 344.003 60.16 344.003 56.032V46.42H337.453Z" fill="white"/>
<path d="M1072.05 47.574C1072.72 47.694 1073.29 48.048 1073.76 48.636C1074.22 49.224 1074.46 49.89 1074.46 50.634C1074.46 51.27 1074.29 51.846 1073.95 52.362C1073.63 52.866 1073.16 53.268 1072.53 53.568C1071.91 53.856 1071.18 54 1070.35 54H1065.35V41.49H1070.12C1070.97 41.49 1071.7 41.634 1072.32 41.922C1072.93 42.21 1073.39 42.6 1073.7 43.092C1074.01 43.572 1074.17 44.112 1074.17 44.712C1074.17 45.432 1073.98 46.032 1073.59 46.512C1073.21 46.992 1072.69 47.346 1072.05 47.574ZM1067.4 46.746H1069.94C1070.61 46.746 1071.13 46.596 1071.51 46.296C1071.89 45.984 1072.08 45.54 1072.08 44.964C1072.08 44.4 1071.89 43.962 1071.51 43.65C1071.13 43.326 1070.61 43.164 1069.94 43.164H1067.4V46.746ZM1070.17 52.326C1070.87 52.326 1071.42 52.158 1071.81 51.822C1072.21 51.486 1072.41 51.018 1072.41 50.418C1072.41 49.806 1072.2 49.32 1071.78 48.96C1071.36 48.6 1070.8 48.42 1070.1 48.42H1067.4V52.326H1070.17ZM1077.73 42.768C1077.36 42.768 1077.05 42.642 1076.8 42.39C1076.54 42.138 1076.42 41.826 1076.42 41.454C1076.42 41.082 1076.54 40.77 1076.8 40.518C1077.05 40.266 1077.36 40.14 1077.73 40.14C1078.09 40.14 1078.4 40.266 1078.65 40.518C1078.9 40.77 1079.03 41.082 1079.03 41.454C1079.03 41.826 1078.9 42.138 1078.65 42.39C1078.4 42.642 1078.09 42.768 1077.73 42.768ZM1078.74 44.082V54H1076.69V44.082H1078.74ZM1080.75 49.032C1080.75 48.012 1080.95 47.118 1081.36 46.35C1081.78 45.57 1082.36 44.97 1083.09 44.55C1083.82 44.13 1084.66 43.92 1085.61 43.92C1086.81 43.92 1087.8 44.208 1088.58 44.784C1089.37 45.348 1089.91 46.158 1090.18 47.214H1087.97C1087.79 46.722 1087.5 46.338 1087.1 46.062C1086.71 45.786 1086.21 45.648 1085.61 45.648C1084.77 45.648 1084.1 45.948 1083.59 46.548C1083.1 47.136 1082.86 47.964 1082.86 49.032C1082.86 50.1 1083.1 50.934 1083.59 51.534C1084.1 52.134 1084.77 52.434 1085.61 52.434C1086.8 52.434 1087.58 51.912 1087.97 50.868H1090.18C1089.89 51.876 1089.35 52.68 1088.56 53.28C1087.77 53.868 1086.79 54.162 1085.61 54.162C1084.66 54.162 1083.82 53.952 1083.09 53.532C1082.36 53.1 1081.78 52.5 1081.36 51.732C1080.95 50.952 1080.75 50.052 1080.75 49.032ZM1093.27 42.768C1092.9 42.768 1092.59 42.642 1092.33 42.39C1092.08 42.138 1091.96 41.826 1091.96 41.454C1091.96 41.082 1092.08 40.77 1092.33 40.518C1092.59 40.266 1092.9 40.14 1093.27 40.14C1093.63 40.14 1093.94 40.266 1094.19 40.518C1094.44 40.77 1094.57 41.082 1094.57 41.454C1094.57 41.826 1094.44 42.138 1094.19 42.39C1093.94 42.642 1093.63 42.768 1093.27 42.768ZM1094.28 44.082V54H1092.23V44.082H1094.28ZM1096.29 49.032C1096.29 48.012 1096.49 47.118 1096.9 46.35C1097.32 45.57 1097.9 44.97 1098.63 44.55C1099.36 44.13 1100.2 43.92 1101.15 43.92C1102.35 43.92 1103.34 44.208 1104.12 44.784C1104.91 45.348 1105.45 46.158 1105.72 47.214H1103.51C1103.33 46.722 1103.04 46.338 1102.64 46.062C1102.25 45.786 1101.75 45.648 1101.15 45.648C1100.31 45.648 1099.64 45.948 1099.13 46.548C1098.64 47.136 1098.4 47.964 1098.4 49.032C1098.4 50.1 1098.64 50.934 1099.13 51.534C1099.64 52.134 1100.31 52.434 1101.15 52.434C1102.34 52.434 1103.12 51.912 1103.51 50.868H1105.72C1105.43 51.876 1104.89 52.68 1104.1 53.28C1103.31 53.868 1102.33 54.162 1101.15 54.162C1100.2 54.162 1099.36 53.952 1098.63 53.532C1097.9 53.1 1097.32 52.5 1096.9 51.732C1096.49 50.952 1096.29 50.052 1096.29 49.032ZM1109.82 40.68V54H1107.77V40.68H1109.82ZM1121.6 48.798C1121.6 49.17 1121.58 49.506 1121.53 49.806H1113.95C1114.01 50.598 1114.31 51.234 1114.83 51.714C1115.36 52.194 1116.01 52.434 1116.78 52.434C1117.88 52.434 1118.66 51.972 1119.12 51.048H1121.33C1121.03 51.96 1120.49 52.71 1119.69 53.298C1118.91 53.874 1117.94 54.162 1116.78 54.162C1115.83 54.162 1114.98 53.952 1114.22 53.532C1113.48 53.1 1112.89 52.5 1112.46 51.732C1112.04 50.952 1111.83 50.052 1111.83 49.032C1111.83 48.012 1112.03 47.118 1112.44 46.35C1112.86 45.57 1113.44 44.97 1114.19 44.55C1114.94 44.13 1115.81 43.92 1116.78 43.92C1117.71 43.92 1118.55 44.124 1119.28 44.532C1120.01 44.94 1120.58 45.516 1120.99 46.26C1121.4 46.992 1121.6 47.838 1121.6 48.798ZM1119.46 48.15C1119.45 47.394 1119.18 46.788 1118.65 46.332C1118.12 45.876 1117.47 45.648 1116.69 45.648C1115.98 45.648 1115.37 45.876 1114.87 46.332C1114.37 46.776 1114.07 47.382 1113.97 48.15H1119.46ZM1126.02 45.756V51.246C1126.02 51.618 1126.1 51.888 1126.27 52.056C1126.45 52.212 1126.75 52.29 1127.17 52.29H1128.43V54H1126.81C1125.88 54 1125.18 53.784 1124.68 53.352C1124.19 52.92 1123.95 52.218 1123.95 51.246V45.756H1122.78V44.082H1123.95V41.616H1126.02V44.082H1128.43V45.756H1126.02ZM1129.63 48.996C1129.63 48 1129.84 47.118 1130.25 46.35C1130.67 45.582 1131.23 44.988 1131.94 44.568C1132.66 44.136 1133.45 43.92 1134.31 43.92C1135.09 43.92 1135.77 44.076 1136.35 44.388C1136.94 44.688 1137.4 45.066 1137.75 45.522V44.082H1139.82V54H1137.75V52.524C1137.4 52.992 1136.93 53.382 1136.33 53.694C1135.73 54.006 1135.05 54.162 1134.28 54.162C1133.43 54.162 1132.65 53.946 1131.94 53.514C1131.23 53.07 1130.67 52.458 1130.25 51.678C1129.84 50.886 1129.63 49.992 1129.63 48.996ZM1137.75 49.032C1137.75 48.348 1137.61 47.754 1137.32 47.25C1137.04 46.746 1136.68 46.362 1136.22 46.098C1135.77 45.834 1135.27 45.702 1134.75 45.702C1134.22 45.702 1133.73 45.834 1133.27 46.098C1132.81 46.35 1132.44 46.728 1132.15 47.232C1131.88 47.724 1131.74 48.312 1131.74 48.996C1131.74 49.68 1131.88 50.28 1132.15 50.796C1132.44 51.312 1132.81 51.708 1133.27 51.984C1133.74 52.248 1134.23 52.38 1134.75 52.38C1135.27 52.38 1135.77 52.248 1136.22 51.984C1136.68 51.72 1137.04 51.336 1137.32 50.832C1137.61 50.316 1137.75 49.716 1137.75 49.032ZM1146.12 54.162C1145.34 54.162 1144.64 54.024 1144.01 53.748C1143.4 53.46 1142.91 53.076 1142.55 52.596C1142.19 52.104 1142 51.558 1141.98 50.958H1144.1C1144.14 51.378 1144.34 51.732 1144.7 52.02C1145.07 52.296 1145.53 52.434 1146.08 52.434C1146.66 52.434 1147.1 52.326 1147.41 52.11C1147.74 51.882 1147.9 51.594 1147.9 51.246C1147.9 50.874 1147.72 50.598 1147.36 50.418C1147.01 50.238 1146.45 50.04 1145.69 49.824C1144.94 49.62 1144.34 49.422 1143.87 49.23C1143.4 49.038 1142.99 48.744 1142.64 48.348C1142.31 47.952 1142.14 47.43 1142.14 46.782C1142.14 46.254 1142.3 45.774 1142.61 45.342C1142.92 44.898 1143.36 44.55 1143.94 44.298C1144.53 44.046 1145.2 43.92 1145.96 43.92C1147.08 43.92 1147.99 44.208 1148.67 44.784C1149.37 45.348 1149.74 46.122 1149.79 47.106H1147.74C1147.7 46.662 1147.52 46.308 1147.2 46.044C1146.87 45.78 1146.44 45.648 1145.88 45.648C1145.34 45.648 1144.93 45.75 1144.64 45.954C1144.35 46.158 1144.21 46.428 1144.21 46.764C1144.21 47.028 1144.31 47.25 1144.5 47.43C1144.69 47.61 1144.92 47.754 1145.2 47.862C1145.48 47.958 1145.88 48.084 1146.42 48.24C1147.14 48.432 1147.73 48.63 1148.19 48.834C1148.66 49.026 1149.06 49.314 1149.39 49.698C1149.73 50.082 1149.9 50.592 1149.92 51.228C1149.92 51.792 1149.76 52.296 1149.45 52.74C1149.14 53.184 1148.69 53.532 1148.12 53.784C1147.55 54.036 1146.89 54.162 1146.12 54.162Z" fill="white"/>
<path d="M1196.47 54.126C1195.63 54.126 1194.88 53.982 1194.2 53.694C1193.53 53.394 1193 52.974 1192.62 52.434C1192.24 51.894 1192.04 51.264 1192.04 50.544H1194.24C1194.29 51.084 1194.5 51.528 1194.87 51.876C1195.25 52.224 1195.79 52.398 1196.47 52.398C1197.18 52.398 1197.73 52.23 1198.13 51.894C1198.52 51.546 1198.72 51.102 1198.72 50.562C1198.72 50.142 1198.6 49.8 1198.34 49.536C1198.1 49.272 1197.8 49.068 1197.43 48.924C1197.07 48.78 1196.56 48.624 1195.91 48.456C1195.1 48.24 1194.43 48.024 1193.92 47.808C1193.41 47.58 1192.98 47.232 1192.62 46.764C1192.26 46.296 1192.08 45.672 1192.08 44.892C1192.08 44.172 1192.26 43.542 1192.62 43.002C1192.98 42.462 1193.48 42.048 1194.13 41.76C1194.78 41.472 1195.53 41.328 1196.38 41.328C1197.59 41.328 1198.58 41.634 1199.35 42.246C1200.13 42.846 1200.56 43.674 1200.65 44.73H1198.38C1198.34 44.274 1198.13 43.884 1197.73 43.56C1197.34 43.236 1196.81 43.074 1196.17 43.074C1195.58 43.074 1195.1 43.224 1194.73 43.524C1194.35 43.824 1194.17 44.256 1194.17 44.82C1194.17 45.204 1194.28 45.522 1194.51 45.774C1194.75 46.014 1195.05 46.206 1195.41 46.35C1195.77 46.494 1196.26 46.65 1196.89 46.818C1197.71 47.046 1198.39 47.274 1198.9 47.502C1199.43 47.73 1199.87 48.084 1200.23 48.564C1200.61 49.032 1200.79 49.662 1200.79 50.454C1200.79 51.09 1200.62 51.69 1200.27 52.254C1199.93 52.818 1199.44 53.274 1198.78 53.622C1198.13 53.958 1197.36 54.126 1196.47 54.126ZM1212.3 48.798C1212.3 49.17 1212.28 49.506 1212.23 49.806H1204.65C1204.71 50.598 1205.01 51.234 1205.54 51.714C1206.06 52.194 1206.71 52.434 1207.48 52.434C1208.58 52.434 1209.36 51.972 1209.82 51.048H1212.03C1211.73 51.96 1211.19 52.71 1210.4 53.298C1209.62 53.874 1208.64 54.162 1207.48 54.162C1206.53 54.162 1205.68 53.952 1204.92 53.532C1204.18 53.1 1203.59 52.5 1203.16 51.732C1202.74 50.952 1202.53 50.052 1202.53 49.032C1202.53 48.012 1202.73 47.118 1203.14 46.35C1203.56 45.57 1204.14 44.97 1204.89 44.55C1205.64 44.13 1206.51 43.92 1207.48 43.92C1208.42 43.92 1209.25 44.124 1209.98 44.532C1210.71 44.94 1211.28 45.516 1211.69 46.26C1212.1 46.992 1212.3 47.838 1212.3 48.798ZM1210.16 48.15C1210.15 47.394 1209.88 46.788 1209.35 46.332C1208.82 45.876 1208.17 45.648 1207.39 45.648C1206.68 45.648 1206.08 45.876 1205.57 46.332C1205.07 46.776 1204.77 47.382 1204.67 48.15H1210.16ZM1218.32 43.92C1219.09 43.92 1219.76 44.076 1220.35 44.388C1220.95 44.688 1221.42 45.066 1221.76 45.522V44.082H1223.83V54.162C1223.83 55.074 1223.63 55.884 1223.25 56.592C1222.87 57.312 1222.31 57.876 1221.58 58.284C1220.86 58.692 1219.99 58.896 1218.98 58.896C1217.64 58.896 1216.52 58.578 1215.64 57.942C1214.75 57.318 1214.24 56.466 1214.12 55.386H1216.16C1216.31 55.902 1216.64 56.316 1217.15 56.628C1217.66 56.952 1218.28 57.114 1218.98 57.114C1219.81 57.114 1220.48 56.862 1220.98 56.358C1221.5 55.854 1221.76 55.122 1221.76 54.162V52.506C1221.41 52.974 1220.93 53.37 1220.33 53.694C1219.75 54.006 1219.07 54.162 1218.32 54.162C1217.45 54.162 1216.66 53.946 1215.94 53.514C1215.23 53.07 1214.67 52.458 1214.25 51.678C1213.84 50.886 1213.64 49.992 1213.64 48.996C1213.64 48 1213.84 47.118 1214.25 46.35C1214.67 45.582 1215.23 44.988 1215.94 44.568C1216.66 44.136 1217.45 43.92 1218.32 43.92ZM1221.76 49.032C1221.76 48.348 1221.61 47.754 1221.32 47.25C1221.05 46.746 1220.68 46.362 1220.23 46.098C1219.77 45.834 1219.28 45.702 1218.75 45.702C1218.22 45.702 1217.73 45.834 1217.27 46.098C1216.82 46.35 1216.45 46.728 1216.16 47.232C1215.88 47.724 1215.74 48.312 1215.74 48.996C1215.74 49.68 1215.88 50.28 1216.16 50.796C1216.45 51.312 1216.82 51.708 1217.27 51.984C1217.74 52.248 1218.23 52.38 1218.75 52.38C1219.28 52.38 1219.77 52.248 1220.23 51.984C1220.68 51.72 1221.05 51.336 1221.32 50.832C1221.61 50.316 1221.76 49.716 1221.76 49.032ZM1235.5 44.082V54H1233.45V52.83C1233.13 53.238 1232.7 53.562 1232.17 53.802C1231.66 54.03 1231.11 54.144 1230.52 54.144C1229.74 54.144 1229.04 53.982 1228.41 53.658C1227.8 53.334 1227.31 52.854 1226.95 52.218C1226.61 51.582 1226.43 50.814 1226.43 49.914V44.082H1228.47V49.608C1228.47 50.496 1228.69 51.18 1229.13 51.66C1229.58 52.128 1230.18 52.362 1230.95 52.362C1231.72 52.362 1232.32 52.128 1232.77 51.66C1233.22 51.18 1233.45 50.496 1233.45 49.608V44.082H1235.5ZM1240.26 45.522C1240.56 45.018 1240.96 44.628 1241.45 44.352C1241.96 44.064 1242.55 43.92 1243.23 43.92V46.044H1242.71C1241.91 46.044 1241.3 46.248 1240.88 46.656C1240.47 47.064 1240.26 47.772 1240.26 48.78V54H1238.21V44.082H1240.26V45.522ZM1249.42 54.162C1248.49 54.162 1247.64 53.952 1246.88 53.532C1246.13 53.1 1245.53 52.5 1245.1 51.732C1244.67 50.952 1244.45 50.052 1244.45 49.032C1244.45 48.024 1244.68 47.13 1245.12 46.35C1245.56 45.57 1246.17 44.97 1246.94 44.55C1247.71 44.13 1248.56 43.92 1249.51 43.92C1250.46 43.92 1251.32 44.13 1252.09 44.55C1252.85 44.97 1253.46 45.57 1253.9 46.35C1254.35 47.13 1254.57 48.024 1254.57 49.032C1254.57 50.04 1254.34 50.934 1253.89 51.714C1253.43 52.494 1252.81 53.1 1252.01 53.532C1251.23 53.952 1250.37 54.162 1249.42 54.162ZM1249.42 52.38C1249.95 52.38 1250.44 52.254 1250.9 52.002C1251.37 51.75 1251.74 51.372 1252.03 50.868C1252.32 50.364 1252.46 49.752 1252.46 49.032C1252.46 48.312 1252.33 47.706 1252.05 47.214C1251.77 46.71 1251.41 46.332 1250.95 46.08C1250.5 45.828 1250 45.702 1249.48 45.702C1248.95 45.702 1248.46 45.828 1248 46.08C1247.56 46.332 1247.2 46.71 1246.94 47.214C1246.67 47.706 1246.54 48.312 1246.54 49.032C1246.54 50.1 1246.81 50.928 1247.35 51.516C1247.9 52.092 1248.59 52.38 1249.42 52.38ZM1260.2 54.162C1259.42 54.162 1258.72 54.024 1258.09 53.748C1257.48 53.46 1256.99 53.076 1256.63 52.596C1256.27 52.104 1256.08 51.558 1256.06 50.958H1258.18C1258.22 51.378 1258.42 51.732 1258.78 52.02C1259.15 52.296 1259.61 52.434 1260.16 52.434C1260.74 52.434 1261.18 52.326 1261.49 52.11C1261.82 51.882 1261.98 51.594 1261.98 51.246C1261.98 50.874 1261.8 50.598 1261.44 50.418C1261.09 50.238 1260.53 50.04 1259.77 49.824C1259.02 49.62 1258.42 49.422 1257.95 49.23C1257.48 49.038 1257.07 48.744 1256.72 48.348C1256.39 47.952 1256.22 47.43 1256.22 46.782C1256.22 46.254 1256.38 45.774 1256.69 45.342C1257 44.898 1257.44 44.55 1258.02 44.298C1258.61 44.046 1259.28 43.92 1260.04 43.92C1261.16 43.92 1262.07 44.208 1262.75 44.784C1263.45 45.348 1263.82 46.122 1263.87 47.106H1261.82C1261.78 46.662 1261.6 46.308 1261.28 46.044C1260.95 45.78 1260.52 45.648 1259.96 45.648C1259.42 45.648 1259.01 45.75 1258.72 45.954C1258.43 46.158 1258.29 46.428 1258.29 46.764C1258.29 47.028 1258.39 47.25 1258.58 47.43C1258.77 47.61 1259 47.754 1259.28 47.862C1259.56 47.958 1259.96 48.084 1260.5 48.24C1261.22 48.432 1261.81 48.63 1262.27 48.834C1262.74 49.026 1263.14 49.314 1263.47 49.698C1263.81 50.082 1263.98 50.592 1264 51.228C1264 51.792 1263.84 52.296 1263.53 52.74C1263.22 53.184 1262.77 53.532 1262.2 53.784C1261.63 54.036 1260.97 54.162 1260.2 54.162Z" fill="white"/>
<path d="M1305.67 47.718C1305.67 46.494 1305.95 45.396 1306.51 44.424C1307.09 43.452 1307.86 42.696 1308.83 42.156C1309.82 41.604 1310.89 41.328 1312.06 41.328C1313.39 41.328 1314.57 41.658 1315.6 42.318C1316.65 42.966 1317.4 43.89 1317.87 45.09H1315.4C1315.08 44.43 1314.63 43.938 1314.05 43.614C1313.48 43.29 1312.81 43.128 1312.06 43.128C1311.23 43.128 1310.49 43.314 1309.84 43.686C1309.19 44.058 1308.68 44.592 1308.31 45.288C1307.95 45.984 1307.77 46.794 1307.77 47.718C1307.77 48.642 1307.95 49.452 1308.31 50.148C1308.68 50.844 1309.19 51.384 1309.84 51.768C1310.49 52.14 1311.23 52.326 1312.06 52.326C1312.81 52.326 1313.48 52.164 1314.05 51.84C1314.63 51.516 1315.08 51.024 1315.4 50.364H1317.87C1317.4 51.564 1316.65 52.488 1315.6 53.136C1314.57 53.784 1313.39 54.108 1312.06 54.108C1310.88 54.108 1309.81 53.838 1308.83 53.298C1307.86 52.746 1307.09 51.984 1306.51 51.012C1305.95 50.04 1305.67 48.942 1305.67 47.718ZM1324.57 54.162C1323.64 54.162 1322.79 53.952 1322.04 53.532C1321.28 53.1 1320.69 52.5 1320.25 51.732C1319.82 50.952 1319.61 50.052 1319.61 49.032C1319.61 48.024 1319.83 47.13 1320.27 46.35C1320.72 45.57 1321.32 44.97 1322.09 44.55C1322.86 44.13 1323.72 43.92 1324.66 43.92C1325.61 43.92 1326.47 44.13 1327.24 44.55C1328.01 44.97 1328.61 45.57 1329.06 46.35C1329.5 47.13 1329.72 48.024 1329.72 49.032C1329.72 50.04 1329.49 50.934 1329.04 51.714C1328.58 52.494 1327.96 53.1 1327.17 53.532C1326.39 53.952 1325.52 54.162 1324.57 54.162ZM1324.57 52.38C1325.1 52.38 1325.59 52.254 1326.05 52.002C1326.52 51.75 1326.9 51.372 1327.18 50.868C1327.47 50.364 1327.62 49.752 1327.62 49.032C1327.62 48.312 1327.48 47.706 1327.2 47.214C1326.93 46.71 1326.56 46.332 1326.1 46.08C1325.65 45.828 1325.16 45.702 1324.63 45.702C1324.1 45.702 1323.61 45.828 1323.15 46.08C1322.71 46.332 1322.35 46.71 1322.09 47.214C1321.83 47.706 1321.69 48.312 1321.69 49.032C1321.69 50.1 1321.96 50.928 1322.5 51.516C1323.06 52.092 1323.75 52.38 1324.57 52.38ZM1336.75 43.92C1337.53 43.92 1338.23 44.082 1338.84 44.406C1339.47 44.73 1339.95 45.21 1340.3 45.846C1340.65 46.482 1340.82 47.25 1340.82 48.15V54H1338.79V48.456C1338.79 47.568 1338.57 46.89 1338.12 46.422C1337.68 45.942 1337.07 45.702 1336.3 45.702C1335.54 45.702 1334.92 45.942 1334.47 46.422C1334.02 46.89 1333.8 47.568 1333.8 48.456V54H1331.75V44.082H1333.8V45.216C1334.14 44.808 1334.56 44.49 1335.08 44.262C1335.61 44.034 1336.17 43.92 1336.75 43.92ZM1345.83 45.756V51.246C1345.83 51.618 1345.92 51.888 1346.09 52.056C1346.27 52.212 1346.57 52.29 1346.99 52.29H1348.25V54H1346.63C1345.7 54 1344.99 53.784 1344.5 53.352C1344.01 52.92 1343.76 52.218 1343.76 51.246V45.756H1342.59V44.082H1343.76V41.616H1345.83V44.082H1348.25V45.756H1345.83ZM1349.45 48.996C1349.45 48 1349.66 47.118 1350.07 46.35C1350.49 45.582 1351.05 44.988 1351.76 44.568C1352.48 44.136 1353.27 43.92 1354.13 43.92C1354.91 43.92 1355.59 44.076 1356.17 44.388C1356.76 44.688 1357.22 45.066 1357.57 45.522V44.082H1359.64V54H1357.57V52.524C1357.22 52.992 1356.75 53.382 1356.15 53.694C1355.55 54.006 1354.87 54.162 1354.1 54.162C1353.25 54.162 1352.47 53.946 1351.76 53.514C1351.05 53.07 1350.49 52.458 1350.07 51.678C1349.66 50.886 1349.45 49.992 1349.45 48.996ZM1357.57 49.032C1357.57 48.348 1357.43 47.754 1357.14 47.25C1356.86 46.746 1356.5 46.362 1356.04 46.098C1355.59 45.834 1355.09 45.702 1354.57 45.702C1354.04 45.702 1353.55 45.834 1353.09 46.098C1352.63 46.35 1352.26 46.728 1351.97 47.232C1351.7 47.724 1351.56 48.312 1351.56 48.996C1351.56 49.68 1351.7 50.28 1351.97 50.796C1352.26 51.312 1352.63 51.708 1353.09 51.984C1353.56 52.248 1354.05 52.38 1354.57 52.38C1355.09 52.38 1355.59 52.248 1356.04 51.984C1356.5 51.72 1356.86 51.336 1357.14 50.832C1357.43 50.316 1357.57 49.716 1357.57 49.032ZM1364.73 45.756V51.246C1364.73 51.618 1364.81 51.888 1364.98 52.056C1365.16 52.212 1365.46 52.29 1365.88 52.29H1367.14V54H1365.52C1364.6 54 1363.89 53.784 1363.4 53.352C1362.91 52.92 1362.66 52.218 1362.66 51.246V45.756H1361.49V44.082H1362.66V41.616H1364.73V44.082H1367.14V45.756H1364.73ZM1373.34 54.162C1372.4 54.162 1371.55 53.952 1370.8 53.532C1370.04 53.1 1369.45 52.5 1369.02 51.732C1368.58 50.952 1368.37 50.052 1368.37 49.032C1368.37 48.024 1368.59 47.13 1369.03 46.35C1369.48 45.57 1370.08 44.97 1370.85 44.55C1371.62 44.13 1372.48 43.92 1373.43 43.92C1374.37 43.92 1375.23 44.13 1376 44.55C1376.77 44.97 1377.37 45.57 1377.82 46.35C1378.26 47.13 1378.48 48.024 1378.48 49.032C1378.48 50.04 1378.26 50.934 1377.8 51.714C1377.34 52.494 1376.72 53.1 1375.93 53.532C1375.15 53.952 1374.28 54.162 1373.34 54.162ZM1373.34 52.38C1373.86 52.38 1374.36 52.254 1374.81 52.002C1375.28 51.75 1375.66 51.372 1375.95 50.868C1376.23 50.364 1376.38 49.752 1376.38 49.032C1376.38 48.312 1376.24 47.706 1375.96 47.214C1375.69 46.71 1375.32 46.332 1374.87 46.08C1374.41 45.828 1373.92 45.702 1373.39 45.702C1372.86 45.702 1372.37 45.828 1371.91 46.08C1371.47 46.332 1371.12 46.71 1370.85 47.214C1370.59 47.706 1370.46 48.312 1370.46 49.032C1370.46 50.1 1370.73 50.928 1371.27 51.516C1371.82 52.092 1372.51 52.38 1373.34 52.38Z" fill="white"/>
</svg>
